<svg xmlns="http://www.w3.org/2000/svg" xmlns:xlink="http://www.w3.org/1999/xlink" width="46" height="46" viewBox="0 0 46 46" fill="none"><g opacity="1"  transform="translate(0 0)"><mask id="bg-mask-0" fill="white"><use transform="translate(0 0)" xlink:href="#path_0"></use></mask><g mask="url(#bg-mask-0)" ><path id="矩形 1" fill-rule="evenodd" style="fill:#1F3349" opacity="1" d="M4.00146 46.0002L42.0015 46.0002C44.2115 46.0002 46.0015 44.2102 46.0015 42.0002L46.0015 4.00018C46.0015 1.79018 44.2115 0.000183105 42.0015 0.000183105L4.00146 0.000183105C1.79146 0.000183105 0.00146484 1.79018 0.00146484 4.00018L0.00146484 42.0002C0.00146484 44.2102 1.79146 46.0002 4.00146 46.0002Z"></path><path id="文本 3" fill-rule="evenodd" style="fill:#FFFFFF" opacity="1" d="M21.0751 39.0458L21.0367 39.0458C19.2493 38.9681 17.6538 38.5858 17.6538 38.5858C16.0995 38.2361 14.9417 36.9471 14.9417 36.9471C14.1646 36.0534 13.6959 35.0113 13.6959 35.0113C13.2296 33.9232 13.1497 32.7113 13.1497 32.7113L13.1497 27.0763L13.1497 27.0379C13.4605 23.2687 13.9259 18.9209 13.9259 18.9209C14.3533 14.9573 14.7022 11.4171 14.7022 11.4171C14.1581 11.2617 13.7726 10.8325 13.7726 10.8325C13.2674 10.2108 13.418 9.44296 13.418 9.44296L13.418 9.24171L13.9259 8.35046L14.1942 8.31213C16.0983 7.80697 18.0851 7.49754 18.0851 7.49754C20.4166 7.18668 22.9055 7.18129 22.9055 7.18129L28.1092 7.18129L31.2621 6.95129L31.4155 6.98963C32.2315 7.33935 32.5751 8.15879 32.5751 8.15879L32.6134 8.27379L32.6134 9.24171L32.5751 9.35671C32.2253 10.1727 31.4155 10.5259 31.4155 10.5259L31.3388 10.5642L28.1476 10.7942L22.9438 10.7942L18.6313 11.1105C17.893 13.0922 17.7784 15.7296 17.7784 15.7296C17.6618 18.2942 17.3472 20.3967 17.3472 20.3967L20.1455 20.3967C22.7878 20.0858 25.5409 20.0421 25.5409 20.0421C28.2221 20.0033 30.438 19.6971 30.438 19.6971L30.6392 19.6588L30.7926 19.7354C31.6086 20.0852 31.9617 20.8663 31.9617 20.8663L32.0001 20.9813L32.0001 21.9875L31.9617 22.1025C31.612 22.8797 30.7926 23.2334 30.7926 23.2334L30.7159 23.2717L30.6392 23.2717C28.3466 23.5826 25.5409 23.5784 25.5409 23.5784C22.8597 23.5784 20.3372 23.9713 20.3372 23.9713L20.2605 23.9713L17.0309 23.9713L16.7626 27.1529L16.7626 32.5196C16.918 33.9185 17.8934 34.8867 17.8934 34.8867C18.826 35.3141 19.8292 35.4329 19.8292 35.4329C20.9173 35.5884 22.0909 35.5863 22.0909 35.5863C24.539 35.0811 26.7484 34.2254 26.7484 34.2254C29.0022 33.3317 31.2142 32.7496 31.2142 32.7496L31.4538 32.6729L31.6838 32.7879C32.461 33.1765 32.8147 33.9188 32.8147 33.9188L32.853 34.0338L32.853 34.9633L32.8147 35.0879C32.4649 35.8651 31.6455 36.1708 31.6455 36.1708C29.3917 36.9869 27.0263 37.9246 27.0263 37.9246C24.3063 38.896 21.1517 39.0458 21.1517 39.0458L21.0751 39.0458Z"></path><path  id="文本 3" style="fill:#FFFFFF; opacity:1;" d="M21.0751 39.5458L21.0259 39.5458L21.015 39.5454L21.0259 39.5458L21.015 39.5454Q19.8668 39.4954 18.5916 39.2797Q17.9526 39.1716 17.5373 39.0721Q16.4673 38.8314 15.4137 38.0344Q14.892 37.6398 14.5699 37.2813L14.5698 37.2812Q14.0472 36.6803 13.5945 35.8943Q13.3678 35.5005 13.2399 35.2164L13.2399 35.2163Q12.9223 34.4755 12.7557 33.541Q12.6726 33.0748 12.6507 32.7442L12.6497 32.7277L12.6497 27.0763L12.6497 27.0174L12.6514 26.9968L12.6497 27.0174L12.6514 26.9968Q12.9627 23.2216 13.4287 18.8677L14.2048 11.3657L14.7022 11.4171L14.5648 11.8979L14.7022 11.4171L14.5648 11.8979Q14.133 11.7745 13.7286 11.4629Q13.528 11.3084 13.4008 11.1668L13.4006 11.1667L13.3923 11.1575L13.3845 11.1478L13.3923 11.1575L13.3845 11.1478Q12.9733 10.6418 12.9081 9.95167Q12.8757 9.60983 12.9273 9.34674L13.418 9.44296L12.918 9.44296L12.918 9.10924L13.6128 7.89012L14.1235 7.81715L14.1942 8.31213L14.066 7.82885L14.1942 8.31213L14.066 7.82885Q15.9954 7.31696 18.0081 7.0035Q19.4981 6.80471 21.3476 6.72333Q22.2717 6.68266 22.9044 6.68129L28.1092 6.68129L28.1092 7.18129L28.0729 6.68262L31.3057 6.44679L31.5756 6.51427L31.6124 6.53005L31.5756 6.51427L31.6124 6.53005Q32.2444 6.80089 32.7002 7.40386Q32.926 7.7026 33.0362 7.96547L33.0435 7.98282L33.1134 8.19265L33.1134 9.32285L33.0428 9.53455L33.0346 9.55367L33.0428 9.53455L33.0346 9.55367Q32.7649 10.183 32.1699 10.6429Q31.8747 10.8711 31.6153 10.9842L31.4155 10.5259L31.6391 10.9731L31.4737 11.0558L28.1656 11.2942L22.9438 11.2942L22.9438 10.7942L22.9804 11.2929L18.6679 11.6091L18.6313 11.1105L19.0999 11.285L18.6313 11.1105L19.0999 11.285Q18.6582 12.4706 18.4237 14.2285Q18.3057 15.1137 18.2779 15.7513L18.2779 15.7513Q18.1601 18.3427 17.8416 20.4707L17.8416 20.4707L17.3472 20.3967L17.3472 19.8967L20.1455 19.8967L20.1455 20.3967L20.0871 19.9001L20.1455 20.3967L20.0871 19.9001Q22.7545 19.5863 25.533 19.5422Q27.1902 19.5182 28.9493 19.3571Q29.827 19.2768 30.3696 19.2018L30.438 19.6971L30.3444 19.2059L30.7117 19.136L31.0162 19.2882L30.7926 19.7354L30.9895 19.2759L30.7926 19.7354L30.9895 19.2759Q31.6151 19.544 32.0741 20.1202Q32.3032 20.4079 32.4173 20.6602L32.4173 20.6603L32.4279 20.6837L32.5001 20.9001L32.5001 22.0687L32.4281 22.2846L32.4177 22.3077L32.4281 22.2846L32.4177 22.3077Q32.146 22.9115 31.5451 23.36Q31.2495 23.5807 30.9907 23.6924L30.7926 23.2334L31.0162 23.6806L30.8339 23.7717L30.6392 23.7717L30.6392 23.2717L30.7064 23.7672L30.6392 23.2717L30.7064 23.7672Q29.2496 23.9647 27.2495 24.0412Q26.2515 24.0794 25.5402 24.0784Q23.8912 24.0784 21.9857 24.2721Q21.0333 24.3689 20.4141 24.4653L20.4141 24.4653L20.3759 24.4713L20.2605 24.4713L17.0309 24.4713L17.0309 23.9713L17.5291 24.0133L17.2608 27.195L16.7626 27.1529L17.2626 27.1529L17.2626 32.5196L16.7626 32.5196L17.2595 32.4644L16.7626 32.5196L17.2595 32.4644Q17.3439 33.2243 17.809 33.9607Q18.042 34.3297 18.2456 34.5318L17.8934 34.8867L18.1017 34.4321L17.8934 34.8867L18.1017 34.4321Q18.6372 34.6776 19.3211 34.8324Q19.6629 34.9097 19.8881 34.9364L19.888 34.9364L19.894 34.9371L19.8999 34.938L19.894 34.9371L19.8999 34.938Q20.9524 35.0883 22.09 35.0863L22.0909 35.5863L21.9899 35.0966L22.0909 35.5863L21.9899 35.0966Q23.4932 34.7864 25.1841 34.2406Q26.0288 33.9679 26.5678 33.7592Q28.8458 32.8558 31.087 32.2661L31.087 32.2661L31.2142 32.7496L31.0618 32.2734L31.4953 32.1347L31.9074 32.3407Q32.4922 32.6331 32.9323 33.1882Q33.1531 33.4667 33.266 33.7036L33.266 33.7037L33.2793 33.7315L33.353 33.9526L33.353 35.0385L33.2834 35.2647L33.2706 35.2931L33.2834 35.2647L33.2706 35.2931Q32.9955 35.9045 32.3854 36.3306Q32.0848 36.5406 31.8203 36.6393L31.8203 36.6393Q29.569 37.4544 27.2106 38.3894L27.2026 38.3926L27.1945 38.3955L27.2026 38.3926L27.1945 38.3955Q25.4464 39.0198 23.1387 39.3446Q21.9871 39.5067 21.1755 39.5453L21.1636 39.5458L21.0751 39.5458ZM21.0751 38.5458L21.1517 38.5458L21.1517 39.0458L21.128 38.5464Q21.8936 38.51 22.9993 38.3544Q25.2061 38.0437 26.8582 37.4537L27.0263 37.9246L26.8582 37.4537L27.0263 37.9246L26.8421 37.4598Q29.2144 36.5193 31.4707 35.7024L31.4707 35.7024Q31.6162 35.6481 31.8128 35.5108Q32.1968 35.2426 32.3587 34.8827L32.8147 35.0879L32.3587 34.8827L32.8147 35.0879L32.3368 34.9409L32.3751 34.8163L32.853 34.9633L32.353 34.9633L32.353 34.0338L32.853 34.0338L32.3786 34.1919L32.3403 34.0769L32.8147 33.9188L32.3633 34.1338L32.3633 34.1339Q32.2991 33.9992 32.1486 33.8094Q31.8465 33.4283 31.4602 33.2351L31.2302 33.1201L31.4538 32.6729L31.6062 33.1491L31.3541 33.2298L31.3415 33.2331L31.3415 33.2331Q29.1584 33.8076 26.929 34.6917Q26.3632 34.9108 25.4913 35.1922Q23.7486 35.7547 22.1919 36.0759L22.1424 36.0862L22.1919 36.0759L22.1424 36.0862L22.0918 36.0863Q20.8822 36.0884 19.7585 35.9279L19.8292 35.4329L19.7585 35.9279L19.8292 35.4329L19.7704 35.9295L19.7704 35.9295Q19.4932 35.8966 19.1004 35.8077Q18.3151 35.63 17.6851 35.3412L17.6043 35.3042L17.6851 35.3412L17.6043 35.3042L17.5412 35.2415Q17.2571 34.9595 16.9635 34.4947Q16.3755 33.5635 16.2656 32.5748L16.2626 32.5473L16.2656 32.5748L16.2626 32.5473L16.2626 27.1319L16.5713 23.4713L20.2605 23.4713L20.3372 23.4713L20.3372 23.9713L20.2602 23.4772L20.2602 23.4772Q20.9057 23.3767 21.8846 23.2772Q23.8405 23.0784 25.5417 23.0784Q26.2331 23.0794 27.2112 23.042Q29.1631 22.9673 30.5721 22.7762L30.6055 22.7717L30.5721 22.7762L30.6055 22.7717L30.7159 22.7717L30.7159 23.2717L30.4923 22.8245L30.5815 22.7799L30.5944 22.7743Q30.7454 22.7091 30.9469 22.5587Q31.3403 22.265 31.5058 21.8973L31.9617 22.1025L31.5058 21.8973L31.9617 22.1025L31.4874 21.9444L31.5257 21.8294L32.0001 21.9875L31.5001 21.9875L31.5001 20.9813L32.0001 20.9813L31.5257 21.1394L31.4874 21.0244L31.9617 20.8663L31.5061 21.0723L31.5062 21.0724Q31.4434 20.9335 31.2918 20.7432Q30.9897 20.3639 30.5956 20.195L30.5821 20.1892L30.5956 20.195L30.5821 20.1892L30.4156 20.106L30.6392 19.6588L30.7328 20.1499L30.519 20.1907L30.5064 20.1924Q29.941 20.2705 29.0405 20.353Q27.2431 20.5175 25.5488 20.542Q22.8211 20.5854 20.2039 20.8933L20.1748 20.8967L20.2039 20.8933L20.1748 20.8967L16.7668 20.8967L16.8527 20.3227L16.8527 20.3227Q17.1635 18.2458 17.2789 15.7079L17.2789 15.7079Q17.3085 15.0257 17.4325 14.0963Q17.6818 12.2269 18.1628 10.9359L18.2748 10.6353L18.1628 10.9359L18.2748 10.6353L22.9255 10.2942L28.1476 10.2942L28.1476 10.7942L28.1116 10.2955L31.3029 10.0655L31.3388 10.5642L31.1152 10.117L31.2036 10.0728L31.2156 10.0676Q31.3612 10.0041 31.5583 9.8517Q31.948 9.55048 32.1155 9.15975L32.5751 9.35671L32.1155 9.15975L32.5751 9.35671L32.1007 9.19859L32.1391 9.08359L32.6134 9.24171L32.1134 9.24171L32.1134 8.27379L32.6134 8.27379L32.1391 8.43191L32.1007 8.31691L32.5751 8.15879L32.114 8.35212Q32.0524 8.20526 31.9024 8.00685Q31.6066 7.61552 31.2185 7.4492L31.4155 6.98963L31.2185 7.4492L31.4155 6.98963L31.2942 7.4747L31.1409 7.43637L31.2621 6.95129L31.2985 7.44997L28.1274 7.68129L22.9066 7.68129Q22.2948 7.68262 21.3916 7.72236Q19.5864 7.8018 18.162 7.99159Q16.2011 8.29698 14.3225 8.79541L14.294 8.80294L14.3225 8.79541L14.294 8.80294L13.9966 8.84543L13.9259 8.35046L14.3603 8.59803L13.8524 9.48927L13.418 9.24171L13.918 9.24171L13.918 9.49152L13.9086 9.53917Q13.885 9.66001 13.9036 9.85753Q13.9404 10.2462 14.1606 10.5172L13.7726 10.8325L14.1606 10.5172L13.7726 10.8325L14.1445 10.4984L14.1444 10.4982Q14.2107 10.5719 14.3389 10.6708Q14.5917 10.8656 14.8395 10.9364L15.2426 11.0515L14.8395 10.9364L15.2426 11.0515L14.4231 18.9741Q13.9583 23.3159 13.648 27.079L13.1497 27.0379L13.648 27.079L13.1497 27.0379L13.6497 27.0379L13.6497 27.0763L13.6497 32.7113L13.1497 32.7113L13.6486 32.6784Q13.6667 32.9537 13.7402 33.3655Q13.8866 34.187 14.1519 34.8062L14.1519 34.8061Q14.2593 35.0447 14.4611 35.3953Q14.8654 36.0973 15.3137 36.613L15.3136 36.6129Q15.5717 36.9001 16.017 37.2369Q16.8979 37.9033 17.7703 38.0996Q18.1528 38.1912 18.7584 38.2937Q19.9724 38.4991 21.0585 38.5463L21.0367 39.0458L21.0585 38.5463L21.0367 39.0458L21.0367 38.5458L21.0751 38.5458Z"></path></g></g><defs><rect id="path_0" x="0" y="0" width="46" height="46" rx="0" ry="0"/></defs></svg>