<svg xmlns="http://www.w3.org/2000/svg" xmlns:xlink="http://www.w3.org/1999/xlink" width="46" height="46" viewBox="0 0 46 46" fill="none"><g opacity="1"  transform="translate(0 0)"><rect fill="#FFFFFF" opacity="1" transform="translate(0 0)" x="0" y="0" width="46" height="46" rx="0" ry="0"/><mask id="bg-mask-0" fill="white"><use transform="translate(0 0)" xlink:href="#path_0"></use></mask><g mask="url(#bg-mask-0)" ><path d="M4.00146 0.000183105L42.0014 0.000183105C44.2106 0.000183105 46.0014 1.79104 46.0014 4.00018L46.0014 42C46.0014 44.2091 44.2106 46 42.0014 46L4.00146 46C1.79233 46 0.00146484 44.2091 0.00146484 42L0.00146484 4.00018C0.00146484 1.79104 1.79233 0.000183105 4.00146 0.000183105Z"  ></path><path id="文本 3" fill-rule="evenodd" style="fill:#1F3349" opacity="1" d="M21.0751 39.0458L21.0367 39.0458C19.2493 38.9681 17.6538 38.5858 17.6538 38.5858C16.0995 38.2361 14.9417 36.9471 14.9417 36.9471C14.1646 36.0534 13.6959 35.0113 13.6959 35.0113C13.2296 33.9232 13.1497 32.7113 13.1497 32.7113L13.1497 27.0763L13.1497 27.0379C13.4605 23.2687 13.9259 18.9209 13.9259 18.9209C14.3533 14.9573 14.7022 11.4171 14.7022 11.4171C14.1581 11.2617 13.7726 10.8325 13.7726 10.8325C13.2674 10.2108 13.418 9.44296 13.418 9.44296L13.418 9.24171L13.9259 8.35046L14.1942 8.31213C16.0983 7.80697 18.0851 7.49754 18.0851 7.49754C20.4166 7.18668 22.9055 7.18129 22.9055 7.18129L28.1092 7.18129L31.2621 6.95129L31.4155 6.98963C32.2315 7.33935 32.5751 8.15879 32.5751 8.15879L32.6134 8.27379L32.6134 9.24171L32.5751 9.35671C32.2253 10.1727 31.4155 10.5259 31.4155 10.5259L31.3388 10.5642L28.1476 10.7942L22.9438 10.7942L18.6313 11.1105C17.893 13.0922 17.7784 15.7296 17.7784 15.7296C17.6618 18.2942 17.3472 20.3967 17.3472 20.3967L20.1455 20.3967C22.7878 20.0858 25.5409 20.0421 25.5409 20.0421C28.2221 20.0033 30.438 19.6971 30.438 19.6971L30.6392 19.6588L30.7926 19.7354C31.6086 20.0852 31.9617 20.8663 31.9617 20.8663L32.0001 20.9813L32.0001 21.9875L31.9617 22.1025C31.612 22.8797 30.7926 23.2334 30.7926 23.2334L30.7159 23.2717L30.6392 23.2717C28.3466 23.5826 25.5409 23.5784 25.5409 23.5784C22.8597 23.5784 20.3372 23.9713 20.3372 23.9713L20.2605 23.9713L17.0309 23.9713L16.7626 27.1529L16.7626 32.5196C16.918 33.9185 17.8934 34.8867 17.8934 34.8867C18.826 35.3141 19.8292 35.4329 19.8292 35.4329C20.9173 35.5884 22.0909 35.5863 22.0909 35.5863C24.539 35.0811 26.7484 34.2254 26.7484 34.2254C29.0022 33.3317 31.2142 32.7496 31.2142 32.7496L31.4538 32.6729L31.6838 32.7879C32.461 33.1765 32.8147 33.9188 32.8147 33.9188L32.853 34.0338L32.853 34.9633L32.8147 35.0879C32.4649 35.8651 31.6455 36.1708 31.6455 36.1708C29.3917 36.9869 27.0263 37.9246 27.0263 37.9246C24.3063 38.896 21.1517 39.0458 21.1517 39.0458L21.0751 39.0458Z"></path><path  id="文本 3" style="fill:#1F3349; opacity:1;" d="M21.0751 40.0458L21.015 40.0458L20.9933 40.0449L21.015 40.0458L20.9933 40.0449Q19.1098 39.963 17.4208 39.5583Q15.5687 39.1417 14.1978 37.6153Q13.3131 36.5981 12.7839 35.4214Q12.243 34.1598 12.1518 32.7771L12.1497 32.7442L12.1497 27.0763L12.1497 26.9968L12.153 26.9557L12.1497 26.9968L12.153 26.9557Q12.4645 23.1794 12.9316 18.8145L12.9316 18.8144L13.7075 11.3142L14.7022 11.4171L14.4274 12.3786L14.7022 11.4171L14.4274 12.3786Q13.6067 12.1441 13.0287 11.5009L13.0121 11.4824L12.9965 11.4631L13.0121 11.4824L12.9965 11.4631Q12.1921 10.4732 12.4374 9.24684Q12.3325 9.77163 12.7109 10.1501L12.4367 9.25053L13.418 9.44296L12.418 9.44296L12.418 8.97676L13.2996 7.42978L14.0528 7.32218L14.1942 8.31213L13.9378 7.34556L14.1942 8.31213L13.9378 7.34556Q15.8926 6.82696 17.9312 6.50945Q20.3491 6.18682 22.9033 6.1813L28.1092 6.18129L28.1092 7.18129L28.0365 6.18394L31.3492 5.94229L31.7358 6.03892L31.8094 6.07048L31.7358 6.03892L31.8094 6.07048Q32.9973 6.57958 33.4973 7.77214L33.5118 7.80685L33.6134 8.11151L33.6134 9.40399L33.5106 9.7124L33.4942 9.75063L33.5106 9.7124L33.4942 9.75063Q32.9884 10.9308 31.8153 11.4425L31.8152 11.4425L31.4155 10.5259L31.8627 11.4203L31.6086 11.5474L28.1836 11.7942L22.9438 11.7942L22.9438 10.7942L23.017 11.7915L18.7045 12.1078L18.6313 11.1105L19.5684 11.4596L18.6313 11.1105L19.5684 11.4596Q18.8854 13.2929 18.7775 15.7731L18.7775 15.773Q18.6585 18.3912 18.3361 20.5447L17.3472 20.3967L17.3472 19.3967L20.1455 19.3967L20.1455 20.3967L20.0286 19.4035L20.1455 20.3967L20.0286 19.4035Q22.7213 19.0868 25.525 19.0422Q28.1462 19.0042 30.3011 18.7065L30.438 19.6971L30.2509 18.7148L30.7841 18.6132L31.2398 18.841L30.7926 19.7354L31.1865 18.8163L30.7926 19.7354L31.1865 18.8163Q32.3594 19.319 32.8729 20.4541L32.8729 20.4543L32.8941 20.5012L33.0001 20.819L33.0001 22.1498L32.8944 22.4668L32.8737 22.5129L32.8944 22.4668L32.8737 22.5129Q32.3647 23.644 31.1888 24.1515L30.7926 23.2334L31.2398 24.1278L30.952 24.2717L30.6392 24.2717L30.6392 23.2717L30.7736 24.2626L30.6392 23.2717L30.7736 24.2626Q28.4138 24.5826 25.5394 24.5784L25.5394 24.5784Q22.9371 24.5784 20.4911 24.9594L20.4146 24.9713L20.2605 24.9713L17.0309 24.9713L17.0309 23.9713L18.0274 24.0553L17.759 27.237L16.7626 27.1529L17.7626 27.1529L17.7626 32.5196L16.7626 32.5196L17.7565 32.4092L16.7626 32.5196L17.7565 32.4092Q17.8729 33.4571 18.598 34.1771L18.5979 34.1769L17.8934 34.8867L18.3101 33.9776L17.8934 34.8867L18.3101 33.9776Q19.0997 34.3395 19.9469 34.4399L19.9468 34.4399L19.9588 34.4413L19.9707 34.443L19.9588 34.4413L19.9707 34.443Q20.9874 34.5882 22.0891 34.5863L22.0909 35.5863L21.8888 34.6069L22.0909 35.5863L21.8888 34.6069Q24.2554 34.1185 26.3873 33.2929Q28.6895 32.3799 30.9598 31.7825L31.2142 32.7496L30.9095 31.7972L31.5368 31.5964L32.131 31.8935Q33.2158 32.4359 33.7174 33.4886L33.7439 33.5442L33.853 33.8715L33.853 35.1137L33.7521 35.4415L33.7266 35.4983L33.7521 35.4415L33.7266 35.4983Q33.2056 36.6559 31.9951 37.1077L31.9951 37.1077Q29.7453 37.9224 27.3949 38.8542L27.3948 38.8542L27.3789 38.8605L27.3627 38.8663L27.3789 38.8605L27.3627 38.8663Q24.5024 39.8879 21.1992 40.0447L21.1755 40.0458L21.0751 40.0458L21.0751 38.0458L21.1517 38.0458L21.1517 39.0458L21.1043 38.047Q24.1101 37.9042 26.69 36.9828L27.0263 37.9246L26.69 36.9828L27.0263 37.9246L26.6578 36.995L26.6578 36.995Q29.0361 36.0521 31.2959 35.2339L31.2958 35.234Q31.7243 35.074 31.9027 34.6776L32.8147 35.0879L31.9027 34.6776L32.8147 35.0879L31.8589 34.7938L31.8972 34.6693L32.853 34.9633L31.853 34.9633L31.853 34.0338L32.853 34.0338L31.9043 34.35L31.866 34.235L32.8147 33.9188L31.9119 34.3489Q31.7062 33.9171 31.2366 33.6824L31.0066 33.5674L31.4538 32.6729L31.7586 33.6254L31.4941 33.71L31.4687 33.7167Q29.3149 34.2835 27.1095 35.1579Q24.8225 36.0437 22.293 36.5656L22.1939 36.5861L22.293 36.5656L22.1939 36.5861L22.0927 36.5863Q20.8471 36.5885 19.6878 36.4229L19.8292 35.4329L19.6878 36.4229L19.8292 35.4329L19.7116 36.426L19.7116 36.426Q18.5522 36.2887 17.4768 35.7957L17.3151 35.7217L17.4768 35.7957L17.3151 35.7217L17.1889 35.5964L17.1888 35.5963Q15.963 34.3792 15.7687 32.63L15.7626 32.575L15.7687 32.63L15.7626 32.575L15.7626 27.1108L16.1117 22.9713L20.2605 22.9713L20.3372 22.9713L20.3372 23.9713L20.1833 22.9832Q22.7823 22.5784 25.5424 22.5784L25.5424 22.5784Q28.2803 22.5824 30.5049 22.2808L30.5717 22.2717L30.5049 22.2808L30.5717 22.2717L30.7159 22.2717L30.7159 23.2717L30.2687 22.3773L30.3705 22.3264L30.3963 22.3152Q30.8594 22.1154 31.0498 21.6922L31.9617 22.1025L31.0498 21.6922L31.9617 22.1025L31.0131 21.7863L31.0514 21.6713L32.0001 21.9875L31.0001 21.9875L31.0001 20.9813L32.0001 20.9813L31.0514 21.2975L31.0131 21.1825L31.9617 20.8663L31.0505 21.2782L31.0506 21.2784Q30.8574 20.8512 30.3986 20.6546L30.3716 20.643L30.3986 20.6546L30.3716 20.643L30.192 20.5532L30.6392 19.6588L30.8263 20.6411L30.6001 20.6842L30.5748 20.6877Q28.2981 21.0023 25.5568 21.042Q22.8544 21.0849 20.2623 21.3898L20.2041 21.3967L20.2623 21.3898L20.2041 21.3967L16.1863 21.3967L16.3582 20.2487Q16.6652 18.1973 16.7793 15.6862L16.7794 15.6861Q16.901 12.8906 17.6942 10.7613L17.9182 10.1601L17.6942 10.7613L17.9182 10.1601L22.9072 9.79421L28.1476 9.79421L28.1476 10.7942L28.0757 9.79679L31.2669 9.56679L31.3388 10.5642L30.8916 9.66978L30.9917 9.61971L31.0158 9.60923L31.0157 9.60926Q31.4623 9.41446 31.6559 8.96279L32.5751 9.35671L31.6559 8.96279L32.5751 9.35671L31.6264 9.04047L31.6647 8.92548L32.6134 9.24171L31.6134 9.24171L31.6134 8.27379L32.6134 8.27379L31.6647 8.59002L31.6264 8.47503L32.5751 8.15879L31.6528 8.54545Q31.4657 8.09912 31.0216 7.90877L31.4155 6.98963L31.0216 7.90877L31.4155 6.98963L31.1729 7.95977L31.0196 7.92144L31.2621 6.95129L31.3349 7.94864L28.1457 8.18129L22.9076 8.18129Q20.484 8.18653 18.239 8.48563Q16.304 8.78699 14.4507 9.27869L14.3939 9.29376L14.4507 9.27869L14.3939 9.29376L14.0673 9.34041L13.9259 8.35046L14.7947 8.84559L14.2868 9.73684L13.418 9.24171L14.418 9.24171L14.418 9.54008L14.3993 9.63539L14.1251 8.73585Q14.5035 9.11428 14.3986 9.63907Q14.3379 9.9425 14.5487 10.2019L13.7726 10.8325L14.5487 10.2019L13.7726 10.8325L14.5164 10.1642Q14.7096 10.3792 14.9769 10.4556L15.7831 10.686L14.9769 10.4556L15.7831 10.686L14.9202 19.0273L14.9202 19.0273Q14.4557 23.368 14.1463 27.1201L13.1497 27.0379L14.1463 27.1201L13.1497 27.0379L14.1497 27.0379L14.1497 27.0763L14.1497 32.7113L13.1497 32.7113L14.1475 32.6454Q14.2162 33.6866 14.6079 34.6011Q15.016 35.5086 15.6857 36.2789Q16.6303 37.3305 17.8868 37.6134Q19.3888 37.9732 21.0802 38.0468L21.0367 39.0458L21.0802 38.0468L21.0367 39.0458L21.0367 38.0458L21.0751 38.0458L21.0751 40.0458Z"></path></g></g><defs><rect id="path_0" x="0" y="0" width="46" height="46" rx="0" ry="0"/></defs></svg>